<svg width="128" height="128" viewBox="0 0 128 128" fill="none" xmlns="http://www.w3.org/2000/svg">
<path d="M64 16H48C39.1635 16 32 23.1635 32 32C32 40.8365 39.1635 48 48 48M64 16V48M64 16H80C88.8368 16 96 23.1635 96 32C96 40.8365 88.8368 48 80 48M48 48H64M48 48C39.1635 48 32 55.1632 32 64C32 72.8368 39.1635 80 48 80M64 48H80M64 48V80M80 48C88.8368 48 96 55.1632 96 64C96 72.8368 88.8368 80 80 80C71.1632 80 64 72.8368 64 64C64 55.1632 71.1632 48 80 48ZM64 80H48M64 80V96C64 104.837 56.8368 112 48 112C39.1635 112 32 104.837 32 96C32 87.1632 39.1635 80 48 80" stroke="white" stroke-width="10" stroke-linecap="round" stroke-linejoin="round"/>
</svg>
