<svg width="128" height="128" viewBox="0 0 128 128" fill="none" xmlns="http://www.w3.org/2000/svg">
<g clip-path="url(#clip0_57_108)">
<path d="M0 64C0 28.6538 28.6538 0 64 0C99.3462 0 128 28.6538 128 64C128 99.3462 99.3462 128 64 128C28.6538 128 0 99.3462 0 64Z" fill="black"/>
<path d="M94.996 120.02C94.52 120.272 94.56 120.352 95.016 120.12C95.164 120.06 95.288 119.976 95.396 119.876C95.396 119.792 95.396 119.792 94.996 120.02ZM95.956 119.5C95.728 119.688 95.728 119.688 96 119.564C96.144 119.48 96.272 119.4 96.272 119.376C96.272 119.268 96.208 119.292 95.956 119.5ZM96.58 119.124C96.352 119.312 96.352 119.312 96.624 119.188C96.772 119.104 96.896 119.016 96.896 118.996C96.896 118.896 96.832 118.916 96.58 119.124ZM97.212 118.752C96.984 118.94 96.984 118.94 97.248 118.812C97.396 118.732 97.52 118.648 97.52 118.624C97.52 118.524 97.456 118.544 97.212 118.752ZM98.064 118.188C97.628 118.48 97.476 118.668 97.876 118.46C98.144 118.296 98.6 117.936 98.52 117.936C98.348 118 98.204 118.108 98.06 118.188H98.064ZM59.812 0.0440028C59.52 0.0640028 58.644 0.144003 57.876 0.208003C39.684 1.856 22.664 11.648 11.876 26.732C5.912 35 2.04 44.604 0.58 54.688C0.064 58.208 0 59.248 0 64.02C0 68.788 0.064 69.812 0.58 73.332C4.064 97.376 21.168 117.56 44.352 125.04C48.524 126.372 52.896 127.292 57.876 127.856C59.812 128.064 68.184 128.064 70.12 127.856C78.728 126.896 85.996 124.772 93.188 121.104C94.292 120.544 94.5 120.396 94.352 120.272C90.832 115.628 87.376 110.98 83.916 106.292L73.688 92.48L60.876 73.5C56.604 67.148 52.316 60.812 47.96 54.524C47.916 54.524 47.86 62.96 47.836 73.248C47.792 91.268 47.792 92 47.564 92.416C47.336 92.916 46.96 93.332 46.46 93.564C46.064 93.752 45.708 93.792 43.816 93.792H41.652L41.088 93.44C40.736 93.212 40.444 92.896 40.256 92.524L39.984 91.96L40.004 66.876L40.048 41.792L40.444 41.292C40.696 40.984 41.008 40.732 41.36 40.544C41.884 40.292 42.092 40.252 44.256 40.252C46.796 40.252 47.216 40.352 47.884 41.084C53.068 48.812 58.236 56.56 63.32 64.332C71.636 76.94 82.988 94.144 88.568 102.584L98.716 117.94L99.216 117.608C104.092 114.356 108.528 110.484 112.356 106.068C120.42 96.836 125.652 85.48 127.424 73.36C127.94 69.84 128.004 68.796 128.004 64.028C128.004 59.256 127.94 58.236 127.424 54.716C123.94 30.672 106.836 10.488 83.652 3.004C79.316 1.632 74.856 0.696003 70.34 0.216003C69.128 0.0920028 60.856 -0.0559972 59.816 0.0520028L59.812 0.0440028ZM86 38.752C86.604 39.04 87.06 39.584 87.268 40.208C87.376 40.544 87.396 47.5 87.376 63.168L87.332 85.664L83.376 79.584L79.396 73.5V57.168C79.396 46.58 79.44 40.644 79.496 40.352C79.684 39.684 80.14 39.124 80.748 38.772C81.244 38.52 81.436 38.5 83.416 38.5C85.268 38.5 85.584 38.52 86 38.752Z" fill="white"/>
</g>
<defs>
<clipPath id="clip0_57_108">
<path d="M0 64C0 28.6538 28.6538 0 64 0C99.3462 0 128 28.6538 128 64C128 99.3462 99.3462 128 64 128C28.6538 128 0 99.3462 0 64Z" fill="white"/>
</clipPath>
</defs>
</svg>
