<svg width="128" height="128" viewBox="0 0 128 128" fill="none" xmlns="http://www.w3.org/2000/svg">
<g clip-path="url(#clip0_281_56)">
<path d="M128 0H0V128H128V0Z" fill="white"/>
<path d="M39.423 33.1629C39.423 44.1614 46.3363 50.7055 60.1768 54.1563L74.843 57.4971C87.9418 60.453 95.9186 67.7945 95.9186 79.7554C96.0205 84.9662 94.2961 90.053 91.0346 94.1634C91.0346 82.23 84.7511 75.7822 69.5951 71.9052L55.1948 68.6881C43.6634 66.1035 34.7629 60.068 34.7629 47.076C34.7022 42.0589 36.3416 37.1644 39.423 33.1629Z" fill="black"/>
<path d="M82.022 76.827C88.2775 80.759 91.0204 86.2583 91.0204 94.1497C85.8425 100.666 76.7461 104.323 66.0544 104.323C48.0575 104.323 35.4625 95.6207 32.6636 80.4978H49.9467C52.1719 87.4406 58.0635 90.6577 65.9284 90.6577C75.5286 90.6577 81.9101 85.6258 82.036 76.7995" fill="black" fill-opacity="0.59"/>
<path d="M48.4076 49.4682C45.5511 47.8004 43.2075 45.404 41.6257 42.5332C40.0439 39.6624 39.2827 36.4244 39.4232 33.1629C44.4192 26.7013 53.1097 22.7556 63.7035 22.7556C82.0363 22.7556 92.6441 32.2693 95.261 45.66H78.6356C76.8023 40.3807 72.2122 36.27 63.8435 36.27C54.901 36.27 48.7994 41.3843 48.4496 49.4682" fill="black" fill-opacity="0.59"/>
</g>
<defs>
<clipPath id="clip0_281_56">
<path d="M0 64C0 28.6538 28.6538 0 64 0V0C99.3462 0 128 28.6538 128 64V64C128 99.3462 99.3462 128 64 128V128C28.6538 128 0 99.3462 0 64V64Z" fill="white"/>
</clipPath>
</defs>
</svg>
