<svg width="39" height="42" viewBox="0 0 39 42" fill="none" xmlns="http://www.w3.org/2000/svg">
<path d="M4.544 8.4H19.712C20.736 8.4 21.5893 8.74133 22.272 9.424C22.9547 10.1067 23.296 10.96 23.296 11.984C23.296 12.9653 22.9547 13.7973 22.272 14.48C21.5893 15.12 20.736 15.44 19.712 15.44H4.544C3.52 15.44 2.66667 15.0987 1.984 14.416C1.30133 13.7333 0.96 12.88 0.96 11.856C0.96 10.8747 1.30133 10.064 1.984 9.424C2.66667 8.74133 3.52 8.4 4.544 8.4ZM11.392 0.399998C12.5013 0.399998 13.3973 0.783998 14.08 1.552C14.8053 2.27733 15.168 3.19467 15.168 4.304V32.784C15.168 33.3813 15.2747 33.872 15.488 34.256C15.744 34.64 16.064 34.9173 16.448 35.088C16.8747 35.2587 17.3227 35.344 17.792 35.344C18.304 35.344 18.7733 35.2587 19.2 35.088C19.6267 34.8747 20.1173 34.768 20.672 34.768C21.2693 34.768 21.8027 35.0453 22.272 35.6C22.784 36.1547 23.04 36.9227 23.04 37.904C23.04 39.0987 22.3787 40.08 21.056 40.848C19.776 41.616 18.3893 42 16.896 42C16 42 14.9973 41.936 13.888 41.808C12.8213 41.6373 11.7973 41.2747 10.816 40.72C9.87733 40.1227 9.088 39.2267 8.448 38.032C7.808 36.8373 7.488 35.1947 7.488 33.104V4.304C7.488 3.19467 7.85067 2.27733 8.576 1.552C9.344 0.783998 10.2827 0.399998 11.392 0.399998ZM33.7395 41.936C32.5022 41.936 31.5422 41.616 30.8595 40.976C30.2195 40.2933 29.8995 39.3333 29.8995 38.096V37.008C29.8995 35.7707 30.2195 34.832 30.8595 34.192C31.5422 33.5093 32.5022 33.168 33.7395 33.168H34.5715C35.8088 33.168 36.7475 33.5093 37.3875 34.192C38.0702 34.832 38.4115 35.7707 38.4115 37.008V38.096C38.4115 39.3333 38.0702 40.2933 37.3875 40.976C36.7475 41.616 35.8088 41.936 34.5715 41.936H33.7395Z" fill="#EE6D11"/>
</svg>
